<svg width="16" height="16" viewBox="0 0 16 16" fill="none" xmlns="http://www.w3.org/2000/svg">
<g id="world">
<path id="Shape" fill-rule="evenodd" clip-rule="evenodd" d="M8.33726 0.166023C8.31593 0.163615 8.29462 0.160921 8.2733 0.158225C8.20763 0.14992 8.14183 0.141602 8.07508 0.141602C8.06124 0.141602 8.04755 0.143457 8.0339 0.145309C8.02209 0.14691 8.0103 0.148509 7.99845 0.1489C7.97706 0.148509 7.9558 0.146906 7.93452 0.145302C7.90998 0.143453 7.88543 0.141602 7.86063 0.141602C3.52687 0.141602 0.000976562 3.66778 0.000976562 8.00125C0.000976562 12.3353 3.52687 15.8609 7.86063 15.8609C7.88555 15.8609 7.91022 15.8591 7.93483 15.8573C7.95596 15.8558 7.97703 15.8543 7.99817 15.8539C8.01015 15.8543 8.02201 15.8558 8.03386 15.8573C8.04755 15.8591 8.06124 15.8609 8.07508 15.8609C8.14533 15.8609 8.21452 15.852 8.28363 15.8432L8.31498 15.8392L8.33726 15.8365C12.449 15.5883 15.7203 12.1744 15.7203 8.00125C15.7203 3.82806 12.449 0.414444 8.33726 0.166023ZM5.50778 1.54399C4.71171 2.46301 4.06498 3.78258 3.70989 5.34104C2.60561 5.22118 1.93922 5.08167 1.67059 5.01711C2.45097 3.40568 3.82679 2.1604 5.50778 1.54399ZM1.29866 5.93248C1.09234 6.58539 0.980064 7.28041 0.980064 8.00125C0.981227 8.84809 1.1398 9.68732 1.44771 10.4762C1.76238 10.4001 2.46357 10.2544 3.60182 10.1309C3.48112 9.45472 3.4101 8.74314 3.4101 8.00125C3.41071 7.43457 3.45076 6.86862 3.52996 6.3075C2.20308 6.16013 1.48617 5.98301 1.29866 5.93248ZM1.8755 11.3834C2.23143 11.3076 2.86919 11.1928 3.81178 11.0943C4.18259 12.4664 4.78582 13.626 5.50835 14.4591C3.97112 13.8966 2.6835 12.8067 1.87494 11.3834H1.8755ZM4.7075 11.0104C5.21585 12.9792 6.45599 14.4397 7.2981 14.7923V10.9074C6.45599 10.9175 5.43845 10.9562 4.7075 11.0104ZM7.2981 9.92883C6.45599 9.9395 5.30989 9.98272 4.52842 10.0434C4.42091 9.39493 4.39031 8.7089 4.39031 8.00125C4.39031 7.45108 4.40098 6.9155 4.4675 6.39816C5.26105 6.46104 6.45599 6.50623 7.2981 6.51746V9.92855V9.92883ZM4.60224 5.42806C5.35508 5.4856 6.45599 5.52827 7.2981 5.53865V5.53837V1.21051C6.45599 1.5889 5.07241 3.23999 4.60224 5.42806ZM14.0254 4.96322C13.8719 5.01037 13.2498 5.18385 12.0195 5.32953C11.7419 3.85304 11.2408 2.59493 10.5874 1.68658C12.0855 2.33585 13.3037 3.50469 14.0254 4.96293V4.96322ZM11.112 5.42665C10.6508 3.21136 9.26301 1.54539 8.42091 1.19592V5.53893C9.26301 5.52855 10.3712 5.4856 11.112 5.42665ZM8.42091 6.51746C9.26301 6.50651 10.4434 6.4602 11.2271 6.39508C11.2916 6.91325 11.3079 7.44967 11.3079 8.00125C11.3079 8.70974 11.2827 9.3969 11.1782 10.0462C10.4066 9.98385 9.26301 9.93894 8.42091 9.92883V6.51746ZM8.42091 10.9074V14.8069V14.8071C9.26301 14.481 10.5099 13.0078 11.0095 11.0126C10.2881 10.957 9.26301 10.9175 8.42091 10.9074ZM10.5874 14.3165C11.1763 13.498 11.6453 12.3993 11.9347 11.1089C12.9026 11.2203 13.5123 11.35 13.8196 11.4275C13.0795 12.7119 11.9464 13.7246 10.5874 14.3165ZM12.1677 6.29683C12.3154 7.57581 12.2956 8.86859 12.1088 10.1424L12.109 10.1422C13.3037 10.2825 13.9833 10.4515 14.2536 10.5304C14.5652 9.74665 14.742 8.89472 14.742 8.00125C14.7416 7.11809 14.57 6.24339 14.2368 5.42553L14.3948 5.87185C14.3504 5.88757 13.6807 6.11522 12.1677 6.29683Z" fill="white"/>
</g>
</svg>
